<svg width="450" height="418" viewBox="0 0 450 418" fill="none" xmlns="http://www.w3.org/2000/svg">
<path d="M312 4C142 167.5 237 248 0 316C-237 384 -312 176.313 -312 4C-312 -168.313 -172.313 -308 0 -308C172.313 -308 482 -159.5 312 4Z" fill="white" fill-opacity="0.15"/>
<path d="M12.1349 358.294C73.9453 340.559 117.846 321.004 150.683 297.157C184.522 272.583 204.031 245.319 219.632 217.102C226.053 205.488 231.755 193.977 237.535 182.308C258.604 139.774 280.715 95.136 342.5 35.7131C392.679 -12.547 414.051 -67.1105 402.245 -122.845C391.208 -174.952 353.212 -217.073 310.557 -248.669C225.07 -311.992 95.3369 -352 0 -352C-196.613 -352 -356 -192.613 -356 4C-356 94.5891 -336.603 200.608 -280.165 276.397C-251.304 315.153 -212.375 346.394 -161.847 362.17C-111.537 377.877 -53.4271 377.105 12.1349 358.294Z" stroke="white" stroke-opacity="0.06" stroke-width="88"/>
</svg>
