<svg width="738" height="474" viewBox="0 0 738 474" fill="none" xmlns="http://www.w3.org/2000/svg">
<path d="M58.6055 79.5986C59.0223 70.2228 110.434 23.1886 119.81 23.6055C129.185 24.0224 176.22 75.4338 175.803 84.8096C175.386 94.1854 123.974 141.22 114.599 140.803C105.223 140.386 58.1886 88.9744 58.6055 79.5986Z" fill="#FADB5F"/>
<path d="M23.1822 431.453C19.473 426.159 27.7944 378.891 33.0886 375.182C38.3828 371.473 85.6502 379.794 89.3594 385.088C93.0685 390.383 84.7471 437.65 79.453 441.359C74.1588 445.068 26.8913 436.747 23.1822 431.453Z" fill="#A9C4FF"/>
<path d="M629.349 415.831C629.725 407.378 676.076 364.973 684.529 365.349C692.982 365.725 735.387 412.076 735.012 420.529C734.636 428.982 688.284 471.387 679.831 471.011C671.378 470.636 628.973 424.284 629.349 415.831Z" fill="#74BAA9"/>
<path d="M472.631 168.6C468.53 149.826 545.564 29.7318 564.338 25.6308C583.112 21.5299 703.206 98.5638 707.307 117.338C711.408 136.112 634.374 256.206 615.6 260.307C596.826 264.408 476.732 187.374 472.631 168.6Z" fill="#CBDBFF"/>
</svg>
